<?xml version="1.0" encoding="UTF-8" standalone="no"?>
<!-- Created with Inkscape (http://www.inkscape.org/) -->

<svg
   xmlns:dc="http://purl.org/dc/elements/1.1/"
   xmlns:cc="http://creativecommons.org/ns#"
   xmlns:rdf="http://www.w3.org/1999/02/22-rdf-syntax-ns#"
   xmlns:svg="http://www.w3.org/2000/svg"
   xmlns="http://www.w3.org/2000/svg"
   xmlns:sodipodi="http://sodipodi.sourceforge.net/DTD/sodipodi-0.dtd"
   xmlns:inkscape="http://www.inkscape.org/namespaces/inkscape"
   version="1.1"
   id="svg10"
   xml:space="preserve"
   width="604.72479"
   height="907.086"
   viewBox="0 0 604.72479 907.086"
   sodipodi:docname="AnalyseReelleEd2Titre.svg"
   inkscape:version="0.92.3 (2405546, 2018-03-11)"><metadata
     id="metadata16"><rdf:RDF><cc:Work
         rdf:about=""><dc:format>image/svg+xml</dc:format><dc:type
           rdf:resource="http://purl.org/dc/dcmitype/StillImage" /><dc:title></dc:title></cc:Work></rdf:RDF></metadata><defs
     id="defs14"><clipPath
       clipPathUnits="userSpaceOnUse"
       id="clipPath40"><path
         d="M 70.829,761.168 H 524.373 V 80.852 H 70.829 Z"
         id="path38"
         inkscape:connector-curvature="0" /></clipPath><clipPath
       clipPathUnits="userSpaceOnUse"
       id="clipPath86"><path
         d="M 70.829,761.168 H 524.373 V 80.852 H 70.829 Z"
         id="path84"
         inkscape:connector-curvature="0" /></clipPath><clipPath
       clipPathUnits="userSpaceOnUse"
       id="clipPath208"><path
         d="M 70.829,761.168 H 524.373 V 80.852 H 70.829 Z"
         id="path206"
         inkscape:connector-curvature="0" /></clipPath></defs><sodipodi:namedview
     pagecolor="#ffffff"
     bordercolor="#666666"
     borderopacity="1"
     objecttolerance="10"
     gridtolerance="10"
     guidetolerance="10"
     inkscape:pageopacity="0"
     inkscape:pageshadow="2"
     inkscape:window-width="1920"
     inkscape:window-height="1017"
     id="namedview12"
     showgrid="false"
     inkscape:zoom="0.93706661"
     inkscape:cx="302.3624"
     inkscape:cy="453.543"
     inkscape:window-x="-8"
     inkscape:window-y="-8"
     inkscape:window-maximized="1"
     inkscape:current-layer="g18" /><g
     id="g18"
     inkscape:groupmode="layer"
     inkscape:label="AnalyseReelleEd2Titre"
     transform="matrix(1.3333333,0,0,-1.3333333,-94.4512,1014.876)"><g
       id="g20"><path
         d="M 94.397,339.47 H 265.243"
         style="fill:none;stroke:#918f90;stroke-width:7;stroke-linecap:round;stroke-linejoin:round;stroke-miterlimit:4;stroke-dasharray:0, 13.668;stroke-dashoffset:0;stroke-opacity:1"
         id="path22"
         inkscape:connector-curvature="0" /><g
         id="g24"
         transform="translate(80.73,339.47)"><path
           d="M 0,0 V 0"
           style="fill:none;stroke:#918f90;stroke-width:7;stroke-linecap:round;stroke-linejoin:round;stroke-miterlimit:4;stroke-dasharray:none;stroke-opacity:1"
           id="path26"
           inkscape:connector-curvature="0" /><g
           id="g28"
           transform="translate(191.348)"><path
             d="M 0,0 V 0"
             style="fill:none;stroke:#918f90;stroke-width:7;stroke-linecap:round;stroke-linejoin:round;stroke-miterlimit:4;stroke-dasharray:none;stroke-opacity:1"
             id="path30"
             inkscape:connector-curvature="0" /><g
             id="g32"
             transform="translate(-272.078,-339.47)"><g
               id="g34"><g
                 id="g36"
                 clip-path="url(#clipPath40)"><path
                   d="m 400.546,80.852 h 92.543 v 71.717 h -92.543 z"
                   style="fill:#4763b8;fill-opacity:1;fill-rule:nonzero;stroke:none"
                   id="path42"
                   inkscape:connector-curvature="0" /></g></g><g
               id="g44"
               transform="translate(440.343,127.008)"><path
                 d="m 0,0 v -0.213 c 0,-0.555 0.348,-0.921 1.003,-0.921 0.586,0 0.976,0.248 0.976,0.756 0,0.413 -0.321,0.602 -0.697,0.72 L -0.07,0.756 c -1.059,0.319 -1.602,0.874 -1.602,1.771 0,1.051 0.78,1.913 2.759,1.913 1.741,0 2.564,-0.661 2.564,-1.807 V 2.374 H 1.923 C 1.923,3.011 1.7,3.33 1.073,3.33 0.585,3.33 0.167,3.094 0.167,2.645 0.167,2.338 0.362,2.078 1.003,1.901 L 2.16,1.571 c 1.212,-0.343 1.658,-0.863 1.658,-1.819 0,-1.335 -1.171,-1.996 -2.787,-1.996 -2.16,0 -2.759,0.803 -2.759,2.02 V 0"
                 style="fill:#ffffff;fill-opacity:1;fill-rule:nonzero;stroke:none"
                 id="path46"
                 inkscape:connector-curvature="0" /><g
                 id="g48"
                 transform="translate(8.388,1.984)"><path
                   d="m 0,0 c 0,0.614 -0.139,1.275 -0.864,1.275 -0.947,0 -1.101,-0.708 -1.101,-2.173 0,-1.57 0.168,-2.22 1.031,-2.22 0.641,0 0.934,0.461 0.934,1.488 h 1.839 c 0,-1.665 -0.822,-2.598 -2.856,-2.598 -1.923,0 -2.87,0.791 -2.87,3.342 0,2.61 1.267,3.342 3.037,3.342 C 0.92,2.456 1.839,1.5 1.839,0"
                   style="fill:#ffffff;fill-opacity:1;fill-rule:nonzero;stroke:none"
                   id="path50"
                   inkscape:connector-curvature="0" /><g
                   id="g52"
                   transform="translate(-448.731,-128.992)"><path
                     d="m 451.644,131.283 h 1.923 v -6.353 h -1.923 z m 0,2.173 h 1.923 v -1.393 h -1.923 z"
                     style="fill:#ffffff;fill-opacity:1;fill-rule:nonzero;stroke:none"
                     id="path54"
                     inkscape:connector-curvature="0" /><g
                     id="g56"
                     transform="translate(458.527,128.826)"><path
                       d="m 0,0 c -0.042,0.968 -0.181,1.512 -0.975,1.512 -0.767,0 -0.99,-0.674 -0.99,-1.264 l 0,-0.248 z m -1.965,-0.968 v -0.508 c 0,-0.744 0.237,-1.476 0.948,-1.476 0.641,0 0.906,0.413 1.017,1.192 h 1.728 c -0.07,-1.476 -0.906,-2.301 -2.717,-2.301 -2.787,0 -2.898,1.817 -2.898,3.4 0,1.7 0.39,3.283 2.981,3.283 2.244,0 2.745,-1.276 2.745,-3.224 v -0.366"
                       style="fill:#ffffff;fill-opacity:1;fill-rule:nonzero;stroke:none"
                       id="path58"
                       inkscape:connector-curvature="0" /><g
                       id="g60"
                       transform="translate(2.843,2.457)"><path
                         d="m 0,0 h 1.839 v -0.744 h 0.028 c 0.404,0.626 1.101,0.909 1.909,0.909 1.198,0 1.909,-0.555 1.909,-1.806 V -6.353 H 3.762 v 4.381 c 0,0.638 -0.251,0.886 -0.822,0.886 -0.655,0 -1.017,-0.343 -1.017,-1.051 V -6.353 H 0"
                         style="fill:#ffffff;fill-opacity:1;fill-rule:nonzero;stroke:none"
                         id="path62"
                         inkscape:connector-curvature="0" /><g
                         id="g64"
                         transform="translate(10.577,-2.291)"><path
                           d="m 0,0 c 0,0.614 -0.139,1.275 -0.864,1.275 -0.947,0 -1.1,-0.708 -1.1,-2.173 0,-1.57 0.167,-2.22 1.031,-2.22 0.639,0 0.933,0.461 0.933,1.488 h 1.839 c 0,-1.665 -0.822,-2.598 -2.857,-2.598 -1.922,0 -2.869,0.791 -2.869,3.342 0,2.61 1.267,3.342 3.037,3.342 C 0.92,2.456 1.839,1.5 1.839,0"
                           style="fill:#ffffff;fill-opacity:1;fill-rule:nonzero;stroke:none"
                           id="path66"
                           inkscape:connector-curvature="0" /><g
                           id="g68"
                           transform="translate(6.451,-0.166)"><path
                             d="m 0,0 c -0.042,0.968 -0.181,1.512 -0.975,1.512 -0.767,0 -0.99,-0.674 -0.99,-1.264 l 0,-0.248 z m -1.965,-0.968 v -0.508 c 0,-0.744 0.237,-1.476 0.948,-1.476 0.641,0 0.906,0.413 1.017,1.192 h 1.728 c -0.07,-1.476 -0.906,-2.301 -2.717,-2.301 -2.787,0 -2.898,1.817 -2.898,3.4 0,1.7 0.39,3.283 2.981,3.283 2.244,0 2.745,-1.276 2.745,-3.224 v -0.366"
                             style="fill:#ffffff;fill-opacity:1;fill-rule:nonzero;stroke:none"
                             id="path70"
                             inkscape:connector-curvature="0" /><g
                             id="g72"
                             transform="translate(4.251,-1.818)"><path
                               d="m 0,0 v -0.213 c 0,-0.555 0.348,-0.921 1.003,-0.921 0.586,0 0.976,0.248 0.976,0.756 0,0.413 -0.321,0.602 -0.697,0.72 L -0.07,0.756 c -1.059,0.319 -1.602,0.874 -1.602,1.771 0,1.051 0.78,1.913 2.759,1.913 1.741,0 2.564,-0.661 2.564,-1.807 V 2.374 H 1.923 C 1.923,3.011 1.7,3.33 1.073,3.33 0.585,3.33 0.167,3.094 0.167,2.645 0.167,2.338 0.362,2.078 1.003,1.901 L 2.16,1.571 c 1.212,-0.343 1.658,-0.863 1.658,-1.819 0,-1.335 -1.171,-1.996 -2.787,-1.996 -2.16,0 -2.759,0.803 -2.759,2.02 V 0"
                               style="fill:#ffffff;fill-opacity:1;fill-rule:nonzero;stroke:none"
                               id="path74"
                               inkscape:connector-curvature="0" /><g
                               id="g76"
                               transform="translate(-73.327,2.079)"><path
                                 d="M 0,0 C 0.219,0.502 1.114,2.228 3.095,2.264 5.072,2.264 5.913,0.503 6.112,0 Z m 21.87,4.346 c -2.782,0 -4.044,-2.336 -5.265,-4.596 -1.092,-2.021 -2.124,-3.929 -4.154,-3.929 -0.819,0 -1.595,0.325 -2.187,0.915 -0.638,0.636 -0.99,1.493 -0.99,2.414 0,1.835 1.425,3.328 3.177,3.328 1.936,0 3.007,-1.863 3.017,-1.881 l 0.091,-0.159 0.997,1.71 -0.014,10.344 -1.951,-1.891 c 0,0 0.007,-6.389 0.007,-6.697 -0.692,0.334 -1.43,0.515 -2.147,0.515 -2.052,0 -3.856,-1.247 -4.669,-3.185 -0.874,1.777 -2.61,2.894 -4.593,2.921 -2.996,0 -5.342,-2.283 -5.342,-5.198 0.019,-2.845 2.406,-5.159 5.32,-5.159 1.662,0 2.766,0.811 3.67,1.571 l 0.09,0.076 -1.422,1.344 -0.072,-0.07 c -0.679,-0.661 -1.42,-0.99 -2.265,-1.005 -1.726,0 -2.963,1.26 -3.121,2.427 l -0.008,0.06 h 7.397 c 0.442,-2.457 2.58,-4.31 5.015,-4.321 2.951,-0.012 4.336,2.542 5.558,4.796 1.052,1.94 2.045,3.773 3.858,3.73 1.782,-0.043 3.178,-1.505 3.178,-3.329 0,-1.835 -1.424,-3.328 -3.175,-3.328 -1.386,0 -2.454,0.947 -3.137,1.659 l -1.191,-2.001 -0.003,-8.275 1.919,-1.493 v 8.734 c 0.839,-0.37 1.65,-0.565 2.412,-0.565 2.821,0 5.118,2.364 5.118,5.269 0,2.906 -2.296,5.269 -5.118,5.269"
                                 style="fill:#ffffff;fill-opacity:1;fill-rule:nonzero;stroke:none"
                                 id="path78"
                                 inkscape:connector-curvature="0" /><g
                                 id="g80"
                                 transform="translate(-409.322,-129.087)"><g
                                   id="g82"
                                   clip-path="url(#clipPath86)"><g
                                   id="g88"
                                   transform="translate(-426.346,761.168)"><path
                                   d="M 0,0 H -15"
                                   style="fill:none;stroke:#ffffff;stroke-width:1.25;stroke-linecap:butt;stroke-linejoin:miter;stroke-miterlimit:10;stroke-dasharray:none;stroke-opacity:1"
                                   id="path90"
                                   inkscape:connector-curvature="0" /><g
                                   id="g92"
                                   transform="translate(964.065)"><path
                                   d="M 0,0 H 15"
                                   style="fill:none;stroke:#ffffff;stroke-width:1.25;stroke-linecap:butt;stroke-linejoin:miter;stroke-miterlimit:10;stroke-dasharray:none;stroke-opacity:1"
                                   id="path94"
                                   inkscape:connector-curvature="0" /><g
                                   id="g96"
                                   transform="translate(-964.065,-680.316)"><path
                                   d="M 0,0 H -15"
                                   style="fill:none;stroke:#ffffff;stroke-width:1.25;stroke-linecap:butt;stroke-linejoin:miter;stroke-miterlimit:10;stroke-dasharray:none;stroke-opacity:1"
                                   id="path98"
                                   inkscape:connector-curvature="0" /><g
                                   id="g100"
                                   transform="translate(964.065)"><path
                                   d="M 0,0 H 15"
                                   style="fill:none;stroke:#ffffff;stroke-width:1.25;stroke-linecap:butt;stroke-linejoin:miter;stroke-miterlimit:10;stroke-dasharray:none;stroke-opacity:1"
                                   id="path102"
                                   inkscape:connector-curvature="0" /><g
                                   id="g104"
                                   transform="translate(-949.892,694.489)"><path
                                   d="M 0,0 V 15"
                                   style="fill:none;stroke:#ffffff;stroke-width:1.25;stroke-linecap:butt;stroke-linejoin:miter;stroke-miterlimit:10;stroke-dasharray:none;stroke-opacity:1"
                                   id="path106"
                                   inkscape:connector-curvature="0" /><g
                                   id="g108"
                                   transform="translate(0,-708.662)"><path
                                   d="M 0,0 V -15"
                                   style="fill:none;stroke:#ffffff;stroke-width:1.25;stroke-linecap:butt;stroke-linejoin:miter;stroke-miterlimit:10;stroke-dasharray:none;stroke-opacity:1"
                                   id="path110"
                                   inkscape:connector-curvature="0" /><g
                                   id="g112"
                                   transform="translate(935.719,708.662)"><path
                                   d="M 0,0 V 15"
                                   style="fill:none;stroke:#ffffff;stroke-width:1.25;stroke-linecap:butt;stroke-linejoin:miter;stroke-miterlimit:10;stroke-dasharray:none;stroke-opacity:1"
                                   id="path114"
                                   inkscape:connector-curvature="0" /><g
                                   id="g116"
                                   transform="translate(0,-708.662)"><path
                                   d="M 0,0 V -15"
                                   style="fill:none;stroke:#ffffff;stroke-width:1.25;stroke-linecap:butt;stroke-linejoin:miter;stroke-miterlimit:10;stroke-dasharray:none;stroke-opacity:1"
                                   id="path118"
                                   inkscape:connector-curvature="0" /><g
                                   id="g120"
                                   transform="translate(-949.892,694.489)"><path
                                   d="M 0,0 H -15"
                                   style="fill:none;stroke:#000000;stroke-width:0.25;stroke-linecap:butt;stroke-linejoin:miter;stroke-miterlimit:10;stroke-dasharray:none;stroke-opacity:1"
                                   id="path122"
                                   inkscape:connector-curvature="0" /><g
                                   id="g124"
                                   transform="translate(964.065)"><path
                                   d="M 0,0 H 15"
                                   style="fill:none;stroke:#000000;stroke-width:0.25;stroke-linecap:butt;stroke-linejoin:miter;stroke-miterlimit:10;stroke-dasharray:none;stroke-opacity:1"
                                   id="path126"
                                   inkscape:connector-curvature="0" /><g
                                   id="g128"
                                   transform="translate(-964.065,-680.316)"><path
                                   d="M 0,0 H -15"
                                   style="fill:none;stroke:#000000;stroke-width:0.25;stroke-linecap:butt;stroke-linejoin:miter;stroke-miterlimit:10;stroke-dasharray:none;stroke-opacity:1"
                                   id="path130"
                                   inkscape:connector-curvature="0" /><g
                                   id="g132"
                                   transform="translate(964.065)"><path
                                   d="M 0,0 H 15"
                                   style="fill:none;stroke:#000000;stroke-width:0.25;stroke-linecap:butt;stroke-linejoin:miter;stroke-miterlimit:10;stroke-dasharray:none;stroke-opacity:1"
                                   id="path134"
                                   inkscape:connector-curvature="0" /><g
                                   id="g136"
                                   transform="translate(-949.892,694.489)"><path
                                   d="M 0,0 V 15"
                                   style="fill:none;stroke:#000000;stroke-width:0.25;stroke-linecap:butt;stroke-linejoin:miter;stroke-miterlimit:10;stroke-dasharray:none;stroke-opacity:1"
                                   id="path138"
                                   inkscape:connector-curvature="0" /><g
                                   id="g140"
                                   transform="translate(0,-708.662)"><path
                                   d="M 0,0 V -15"
                                   style="fill:none;stroke:#000000;stroke-width:0.25;stroke-linecap:butt;stroke-linejoin:miter;stroke-miterlimit:10;stroke-dasharray:none;stroke-opacity:1"
                                   id="path142"
                                   inkscape:connector-curvature="0" /><g
                                   id="g144"
                                   transform="translate(935.719,708.662)"><path
                                   d="M 0,0 V 15"
                                   style="fill:none;stroke:#000000;stroke-width:0.25;stroke-linecap:butt;stroke-linejoin:miter;stroke-miterlimit:10;stroke-dasharray:none;stroke-opacity:1"
                                   id="path146"
                                   inkscape:connector-curvature="0" /><g
                                   id="g148"
                                   transform="translate(0,-708.662)"><path
                                   d="M 0,0 V -15"
                                   style="fill:none;stroke:#000000;stroke-width:0.25;stroke-linecap:butt;stroke-linejoin:miter;stroke-miterlimit:10;stroke-dasharray:none;stroke-opacity:1"
                                   id="path150"
                                   inkscape:connector-curvature="0" /></g></g></g></g></g></g></g></g></g></g></g></g></g></g></g></g></g></g><g
                                 id="g152"
                                 transform="translate(19.981,406.994)"><path
                                   d="M 0,0 5.059,1.806 0,3.613 2.022,1.806"
                                   style="fill:#231f20;fill-opacity:1;fill-rule:nonzero;stroke:none"
                                   id="path154"
                                   inkscape:connector-curvature="0" /><g
                                   id="g156"
                                   transform="translate(-260.266,1.806)"><path
                                   d="M 0,0 H 262.288"
                                   style="fill:none;stroke:#231f20;stroke-width:0.93199998;stroke-linecap:butt;stroke-linejoin:round;stroke-miterlimit:10;stroke-dasharray:none;stroke-opacity:1"
                                   id="path158"
                                   inkscape:connector-curvature="0" /><g
                                   id="g160"
                                   transform="translate(134.469,127.603)"><path
                                   d="M 0,0 -1.806,5.059 -3.613,0 -1.806,2.024"
                                   style="fill:#231f20;fill-opacity:1;fill-rule:nonzero;stroke:none"
                                   id="path162"
                                   inkscape:connector-curvature="0" /><g
                                   id="g164"
                                   transform="translate(-1.806,-260.266)"><path
                                   d="M 0,0 V 262.289"
                                   style="fill:none;stroke:#231f20;stroke-width:0.93199998;stroke-linecap:butt;stroke-linejoin:round;stroke-miterlimit:10;stroke-dasharray:none;stroke-opacity:1"
                                   id="path166"
                                   inkscape:connector-curvature="0" /><g
                                   id="g168"
                                   transform="translate(132.662,265.324)"><path
                                   d="M 0,0 -265.324,-265.324"
                                   style="fill:none;stroke:#231f20;stroke-width:0.93199998;stroke-linecap:butt;stroke-linejoin:round;stroke-miterlimit:10;stroke-dasharray:none;stroke-opacity:1"
                                   id="path170"
                                   inkscape:connector-curvature="0" /><g
                                   id="g172"
                                   transform="translate(-222.594,-265.324)"><path
                                   d="m 0,0 1.938,3.821 6.779,12.815 6.765,12.325 6.767,11.847 6.765,11.356 6.765,10.877 6.779,10.402 6.765,9.908 6.767,9.419 6.765,8.955 6.765,8.452 6.78,7.985 6.766,7.496 6.765,7.004 13.532,12.576 13.545,10.626 13.533,8.702 13.543,6.767 13.53,4.843 13.533,2.904 13.543,0.955 13.533,-0.955 13.545,-2.904 10.825,-3.875"
                                   style="fill:none;stroke:#4763b8;stroke-width:1.16499996;stroke-linecap:butt;stroke-linejoin:round;stroke-miterlimit:10;stroke-dasharray:none;stroke-opacity:1"
                                   id="path174"
                                   inkscape:connector-curvature="0" /><g
                                   id="g176"
                                   transform="translate(156.263,132.663)"><path
                                   d="m 0,0 v 43.115 h -23.216 v -9.804 h -9.804 v -5.864 h -5.864"
                                   style="fill:none;stroke:#4763b8;stroke-width:0.93199998;stroke-linecap:butt;stroke-linejoin:round;stroke-miterlimit:10;stroke-dasharray:none;stroke-opacity:1"
                                   id="path178"
                                   inkscape:connector-curvature="0" /><g
                                   id="g180"
                                   transform="translate(-99.496)"><path
                                   d="m 0,0 v -38.975 h -5.809 v -7.999 h -8 v -11.649 h -11.648 v -18.135"
                                   style="fill:none;stroke:#4763b8;stroke-width:0.93199998;stroke-linecap:butt;stroke-linejoin:round;stroke-miterlimit:10;stroke-dasharray:none;stroke-opacity:1"
                                   id="path182"
                                   inkscape:connector-curvature="0" /><g
                                   id="g184"
                                   transform="translate(-268.535,-537.887)"><text
                                   transform="matrix(0.99999002,0,0,-1,96.5337,703.8241)"
                                   style="font-variant:normal;font-weight:bold;font-size:10.02009964px;font-family:Candara;-inkscape-font-specification:'Candara Bold';writing-mode:lr-tb;fill:#231f20;fill-opacity:1;fill-rule:nonzero;stroke:none"
                                   id="text188"><tspan
                                   x="0 6.7785978 14.939969 21.678486 28.457085 32.750698 40.481205 48.642574 55.355042 65.510414 72.289009 80.450378 87.218956 90.883308 97.621826 105.71306 112.78223 116.38647 126.54184 134.35251 141.12108"
                                   y="0"
                                   sodipodi:role="line"
                                   id="tspan186">ENSEIGNEMENT SUP MATH</tspan></text>
<text
                                   transform="matrix(1,0,0,-1,97.152,361.0744)"
                                   style="font-variant:normal;font-weight:bold;font-size:22.02000046px;font-family:Candara;-inkscape-font-specification:'Candara Bold';writing-mode:lr-tb;fill:#231f20;fill-opacity:1;fill-rule:nonzero;stroke:none"
                                   id="text192"><tspan
                                   x="0 8.7771721 20.042604 30.845615 42.947807 48.488041 60.083771 68.068222 73.542397 84.807831 96.910019 109.01221 120.27764 125.0692 138.18431 150.48468 168.79651 181.0088 191.81181 197.48416 209.58636"
                                   y="0"
                                   sodipodi:role="line"
                                   id="tspan190">Jean-Étienne Rombaldi</tspan></text>
<text
                                   transform="matrix(1,0,0,-1,94.5663,284.7873)"
                                   style="font-variant:normal;font-weight:bold;font-size:38.00009918px;font-family:Candara;-inkscape-font-specification:'Candara Bold';writing-mode:lr-tb;fill:#4763b8;fill-opacity:1;fill-rule:nonzero;stroke:none"
                                   id="text196"><tspan
                                   x="0 20.010853 38.425701 58.436554 91.253441 111.26429 136.51917 156.492 176.35086"
                                   y="0"
                                   sodipodi:role="line"
                                   id="tspan194">ÉLÉMENTS </tspan></text>
<text
                                   transform="matrix(1,0,0,-1,94.5663,245.1038)"
                                   style="font-variant:normal;font-weight:bold;font-size:38.00009918px;font-family:Candara;-inkscape-font-specification:'Candara Bold';writing-mode:lr-tb;fill:#231f20;fill-opacity:1;fill-rule:nonzero;stroke:none"
                                   id="text200"><tspan
                                   x="0 24.494864 34.055691 57.980553 83.23542 107.16028 125.57513 146.53598 166.39484 186.40569 194.63651 217.26938 237.28023 257.29108 275.70593 294.12079"
                                   y="0"
                                   sodipodi:role="line"
                                   id="tspan198">D’ANALYSE RÉELLE</tspan></text>
<g
                                   id="g202"><g
                                   id="g204"
                                   clip-path="url(#clipPath208)"><path
                                   d="m 400.546,694.249 h 92.543 v 66.919 h -92.543 z"
                                   style="fill:#4763b8;fill-opacity:1;fill-rule:nonzero;stroke:none"
                                   id="path210"
                                   inkscape:connector-curvature="0" /></g></g><text
                                   transform="matrix(1,0,0,-1,417.8108,722.3611)"
                                   style="font-variant:normal;font-weight:bold;font-size:14px;font-family:Candara;-inkscape-font-specification:'Candara Bold';writing-mode:lr-tb;fill:#ffffff;fill-opacity:1;fill-rule:nonzero;stroke:none"
                                   id="text214"><tspan
                                   x="0 8.8213997 16.5368 21.9282 29.097601 36.813 43.6884 48.771801 52.259201 60.086601 67.788002"
                                   y="0"
                                   sodipodi:role="line"
                                   id="tspan212">Agrégation </tspan></text>
<text
                                   transform="matrix(1,0,0,-1,443.2082,703.3463)"
                                   style="font-variant:normal;font-weight:bold;font-size:14px;font-family:Candara;-inkscape-font-specification:'Candara Bold';writing-mode:lr-tb;fill:#ffffff;fill-opacity:1;fill-rule:nonzero;stroke:none"
                                   id="text218"><tspan
                                   x="0 12.0988 18.975599 24.8444 29.929199 37.099998"
                                   y="0"
                                   sodipodi:role="line"
                                   id="tspan216">Master</tspan></text>
<g
                                   id="g220"
                                   transform="translate(25.49939,-414.69104)"><text
                                   transform="matrix(1,0,0,-1,70.86,631.9403)"
                                   style="font-variant:normal;font-weight:bold;font-stretch:normal;font-size:18px;font-family:Candara;-inkscape-font-specification:'Candara Bold';writing-mode:lr-tb;fill:#000000;fill-opacity:1;fill-rule:nonzero;stroke:none"
                                   id="text224"><tspan
                                   x="0"
                                   y="0"
                                   id="tspan222">2</tspan></text>
<text
                                   transform="matrix(1,0,0,-1,79.5,637.9403)"
                                   style="font-variant:normal;font-weight:bold;font-stretch:normal;font-size:11.52000046px;font-family:Candara;-inkscape-font-specification:'Candara Bold';writing-mode:lr-tb;fill:#000000;fill-opacity:1;fill-rule:nonzero;stroke:none"
                                   id="text228"><tspan
                                   x="0"
                                   y="0"
                                   id="tspan226">e</tspan></text>
<text
                                   transform="matrix(1,0,0,-1,89.2842,631.9403)"
                                   style="font-variant:normal;font-weight:bold;font-stretch:normal;font-size:18px;font-family:Candara;-inkscape-font-specification:'Candara Bold';writing-mode:lr-tb;fill:#000000;fill-opacity:1;fill-rule:nonzero;stroke:none"
                                   id="text232"><tspan
                                   x="0 9.2195997 19.123199 23.608801 30.1464 34.632 44.697601 54.6012"
                                   y="0"
                                   sodipodi:role="line"
                                   id="tspan230">édition </tspan></text>
</g></g></g></g></g></g></g></g></g></g></g></g></g></g></g></g></g></g></g></g></g></g></g></g></svg>